
<svg fill="#fff" version="1.1" id="Layer_1" xmlns="http://www.w3.org/2000/svg" xmlns:xlink="http://www.w3.org/1999/xlink" 
	 viewBox="0 0 357.308 357.308" xml:space="preserve">
<g>
	<g>
		<g>
			<path d="M342.307,33.502H15c-8.271,0-15,6.729-15,15v221.311c0,8.271,6.728,15,15,15h88.908l-8.399,32.752
				c-0.81,3.158,1.579,6.242,4.844,6.242h156.602c3.26,0,5.655-3.08,4.844-6.242l-8.399-32.752h88.908c8.271,0,15-6.729,15-15
				V48.502C357.307,40.231,350.578,33.502,342.307,33.502z M106.797,313.807l7.436-28.995h128.842l7.435,28.995H106.797z
				 M347.307,269.813c0,2.757-2.243,5-5,5c-3.988,0-293.807,0-327.307,0c-2.757,0-5-2.243-5-5V48.502c0-2.757,2.243-5,5-5h327.307
				c2.757,0,5,2.243,5,5V269.813z"/>
			<path d="M327.307,58.502H30c-2.762,0-5,2.239-5,5v177.18c0,2.761,2.238,5,5,5h297.307c2.762,0,5-2.239,5-5V63.502
				C332.307,60.741,330.068,58.502,327.307,58.502z M322.307,235.682H35V68.502h287.307V235.682z"/>
			<path d="M82.39,203.583l50.588,10c3.101,0.611,5.97-1.767,5.97-4.905V105.507c0-2.388-1.688-4.442-4.03-4.905l-50.588-10
				c-3.099-0.609-5.97,1.763-5.97,4.905v103.171C78.359,201.065,80.048,203.119,82.39,203.583z M88.359,101.591l40.588,8.023v92.978
				l-40.588-8.023V101.591z"/>
			<path d="M152.39,203.583l50.588,10c3.101,0.611,5.97-1.767,5.97-4.905V105.507c0-2.388-1.688-4.442-4.03-4.905l-50.588-10
				c-3.098-0.609-5.97,1.763-5.97,4.905v103.171C148.359,201.065,150.048,203.119,152.39,203.583z M158.359,101.591l40.588,8.023
				v92.978l-40.588-8.023V101.591z"/>
			<path d="M222.39,203.583l50.588,10c3.1,0.611,5.97-1.767,5.97-4.905V105.507c0-2.388-1.688-4.442-4.03-4.905l-50.588-10
				c-3.098-0.609-5.97,1.763-5.97,4.905v103.171C218.359,201.065,220.048,203.119,222.39,203.583z M228.359,101.591l40.588,8.023
				v92.978l-40.588-8.023V101.591z"/>
			<circle cx="267.954" cy="260.495" r="7.36"/>
			<circle cx="291.204" cy="260.495" r="7.36"/>
			<circle cx="314.454" cy="260.495" r="7.36"/>
		</g>
	</g>
</g>
</svg>