<svg viewBox="0 0 39 28"
 xmlns="http://www.w3.org/2000/svg">
<path fill="white"  class="svg-active" 
d="M22.3838 16.8074C22.1589 16.6002 21.9785 16.3503 21.8534 16.0726C21.7282 15.7949 21.661 15.4952 21.6555 15.1913C21.6501 14.8873 21.7067 14.5854 21.8218 14.3035C21.9369 14.0217 22.1083 13.7656 22.3257 13.5507C22.5431 13.3357 22.802 13.1663 23.0871 13.0524C23.3721 12.9386 23.6774 12.8827 23.9848 12.888C24.2922 12.8934 24.5953 12.9599 24.8761 13.0837C25.1569 13.2074 25.4097 13.3858 25.6193 13.6082C26.0236 14.0373 26.2438 14.6048 26.2333 15.1913C26.2228 15.7777 25.9826 16.3372 25.5632 16.7519C25.1437 17.1667 24.5779 17.4042 23.9848 17.4146C23.3917 17.4249 22.8178 17.2073 22.3838 16.8074ZM13.7473 5.07129L15.9068 7.20664C13.7605 9.32916 12.5547 12.2078 12.5547 15.2093C12.5547 18.2108 13.7605 21.0894 15.9068 23.2119L13.7473 25.3473C12.4007 24.016 11.3326 22.4355 10.6038 20.696C9.87508 18.9565 9.5 17.0921 9.5 15.2093C9.5 13.3265 9.87508 11.4621 10.6038 9.72256C11.3326 7.98307 12.4007 6.40256 13.7473 5.07129ZM34.2527 5.07129C35.5993 6.40256 36.6674 7.98307 37.3962 9.72256C38.1249 11.4621 38.5 13.3265 38.5 15.2093C38.5 17.0921 38.1249 18.9565 37.3962 20.696C36.6674 22.4355 35.5993 24.016 34.2527 25.3473L32.0932 23.2119C34.2395 21.0894 35.4453 18.2108 35.4453 15.2093C35.4453 12.2078 34.2395 9.32916 32.0932 7.20664L34.2527 5.07129ZM18.0648 9.33897L20.2228 11.4728C19.7267 11.9633 19.3332 12.5456 19.0647 13.1864C18.7962 13.8273 18.6581 14.5141 18.6581 15.2078C18.6581 15.9014 18.7962 16.5883 19.0647 17.2292C19.3332 17.87 19.7267 18.4523 20.2228 18.9428L18.0648 21.0766C16.4907 19.5201 15.6064 17.409 15.6064 15.2078C15.6064 13.0066 16.4907 10.8955 18.0648 9.33897ZM29.9352 9.33897C31.5093 10.8955 32.3936 13.0066 32.3936 15.2078C32.3936 17.409 31.5093 19.5201 29.9352 21.0766L27.7772 18.9428C28.2733 18.4523 28.6668 17.87 28.9353 17.2292C29.2038 16.5883 29.3419 15.9014 29.3419 15.2078C29.3419 14.5141 29.2038 13.8273 28.9353 13.1864C28.6668 12.5456 28.2733 11.9633 27.7772 11.4728L29.9352 9.33897Z" />
</svg>