<svg fill="#fff" version="1.1" id="Layer_1" xmlns="http://www.w3.org/2000/svg" xmlns:xlink="http://www.w3.org/1999/xlink" 
	 viewBox="0 0 512.001 512.001" xml:space="preserve">
<g>
	<g>
		<path d="M456.195,384.32h-32.372V233.958c0-85.827-64.763-156.798-147.983-166.646V19.84c0-10.957-8.883-19.84-19.84-19.84
			c-10.957,0-19.84,8.883-19.84,19.84v47.472c-83.221,9.847-147.983,80.819-147.983,166.646v150.364H55.804
			c-10.957,0-19.84,8.883-19.84,19.84s8.883,19.84,19.84,19.84h68.084h74.886v30.773c0,31.554,25.672,57.227,57.227,57.227
			s57.227-25.672,57.227-57.227v-30.773h74.886h68.084c10.957,0,19.84-8.883,19.84-19.84S467.152,384.32,456.195,384.32z
			 M255.998,472.32c-9.675,0-17.547-7.871-17.547-17.547V424h35.092v30.773h0.001C273.545,464.447,265.673,472.32,255.998,472.32z
			 M384.142,384.321h-106.63v-0.001h-43.028H127.856V233.958c0-70.658,57.484-128.144,128.143-128.144
			s128.143,57.486,128.143,128.144V384.321z"/>
	</g>
</g>
</svg>